<svg width="178" height="143" viewBox="0 0 178 143" fill="none" xmlns="http://www.w3.org/2000/svg">
<path d="M9.41494 22.7295V33.5843H25.0299V37.4102H9.41494V50H4.96623V18.8591H26.9428V22.7295H9.41494ZM32.1478 26.4219H36.4186V50H32.1478V26.4219ZM34.2832 21.8842C33.4528 21.8842 32.7558 21.6173 32.1923 21.0834C31.6584 20.5496 31.3915 19.8971 31.3915 19.126C31.3915 18.3549 31.6584 17.7024 32.1923 17.1686C32.7558 16.6051 33.4528 16.3233 34.2832 16.3233C35.1136 16.3233 35.7957 16.5902 36.3296 17.1241C36.8931 17.6283 37.1748 18.2659 37.1748 19.037C37.1748 19.8378 36.8931 20.5199 36.3296 21.0834C35.7957 21.6173 35.1136 21.8842 34.2832 21.8842ZM57.1627 26.1994C60.1582 26.1994 62.5308 27.0744 64.2806 28.8242C66.0601 30.5443 66.9499 33.0801 66.9499 36.4315V50H62.6791V36.9208C62.6791 34.6371 62.1304 32.917 61.0331 31.7603C59.9357 30.6037 58.3639 30.0253 56.3175 30.0253C54.0041 30.0253 52.1802 30.7075 50.8456 32.0717C49.5109 33.4063 48.8436 35.3341 48.8436 37.855V50H44.5729V26.4219H48.6657V29.9808C49.5258 28.7649 50.6824 27.8306 52.1357 27.1782C53.6186 26.5257 55.2943 26.1994 57.1627 26.1994ZM97.2274 16.9906V50H93.1346V46.2631C92.1856 47.568 90.9844 48.5616 89.5312 49.2437C88.0779 49.9259 86.4764 50.2669 84.7266 50.2669C82.4429 50.2669 80.3965 49.7627 78.5874 48.7544C76.7782 47.746 75.3547 46.3372 74.3166 44.5281C73.3083 42.6893 72.8041 40.5836 72.8041 38.2109C72.8041 35.8383 73.3083 33.7474 74.3166 31.9383C75.3547 30.1291 76.7782 28.7204 78.5874 27.712C80.3965 26.7036 82.4429 26.1994 84.7266 26.1994C86.4171 26.1994 87.9741 26.5257 89.3977 27.1782C90.8213 27.801 92.0076 28.7352 92.9567 29.9808V16.9906H97.2274ZM85.0825 46.53C86.5654 46.53 87.9148 46.1889 89.1308 45.5068C90.3468 44.795 91.2958 43.8163 91.978 42.5707C92.6601 41.2954 93.0012 39.8421 93.0012 38.2109C93.0012 36.5797 92.6601 35.1413 91.978 33.8957C91.2958 32.6204 90.3468 31.6417 89.1308 30.9596C87.9148 30.2774 86.5654 29.9364 85.0825 29.9364C83.5699 29.9364 82.2057 30.2774 80.9897 30.9596C79.8034 31.6417 78.8543 32.6204 78.1425 33.8957C77.4604 35.1413 77.1193 36.5797 77.1193 38.2109C77.1193 39.8421 77.4604 41.2954 78.1425 42.5707C78.8543 43.8163 79.8034 44.795 80.9897 45.5068C82.2057 46.1889 83.5699 46.53 85.0825 46.53ZM140.655 50.4894L136.518 46.3521C133.76 49.0213 130.29 50.3559 126.108 50.3559C124.032 50.3559 122.164 50.0148 120.503 49.3327C118.842 48.6506 117.537 47.7015 116.588 46.4855C115.669 45.2399 115.209 43.8311 115.209 42.2593C115.209 40.3611 115.787 38.6855 116.944 37.2322C118.13 35.7493 120.073 34.2368 122.772 32.6945C121.407 31.3303 120.444 30.0995 119.88 29.0021C119.317 27.9048 119.035 26.7629 119.035 25.5766C119.035 23.4709 119.791 21.7804 121.304 20.5051C122.846 19.2298 124.892 18.5922 127.443 18.5922C129.815 18.5922 131.699 19.1705 133.093 20.3272C134.487 21.4838 135.184 23.0705 135.184 25.0873C135.184 26.6591 134.665 28.0679 133.627 29.3135C132.618 30.5592 130.928 31.8641 128.555 33.2284L136.251 40.8802C137.141 39.1897 137.779 37.3064 138.164 35.2303L141.59 36.3425C141.056 39.071 140.151 41.4437 138.876 43.4604L143.058 47.6422L140.655 50.4894ZM127.443 21.7063C126.049 21.7063 124.952 22.0622 124.151 22.7739C123.38 23.4561 122.994 24.3606 122.994 25.4877C122.994 26.2884 123.202 27.0595 123.617 27.801C124.062 28.5424 124.907 29.5508 126.153 30.8261C128.199 29.6694 129.608 28.6759 130.379 27.8455C131.18 27.015 131.58 26.1105 131.58 25.1318C131.58 24.0937 131.209 23.2633 130.468 22.6405C129.756 22.0177 128.748 21.7063 127.443 21.7063ZM126.375 46.7969C129.46 46.7969 131.995 45.8182 133.982 43.8608L125.129 35.0524C122.994 36.2387 121.496 37.3509 120.636 38.3889C119.806 39.3973 119.391 40.5391 119.391 41.8144C119.391 43.2973 120.028 44.4984 121.304 45.4178C122.609 46.3372 124.299 46.7969 126.375 46.7969Z" fill="white"/>
<path d="M27.9751 64.0837C32.4913 64.0837 36.4133 64.8443 39.741 66.3656C43.0688 67.8393 45.6359 69.9785 47.4424 72.7834C49.2489 75.5406 50.1522 78.7971 50.1522 82.5527C50.1522 86.3083 49.2489 89.5648 47.4424 92.322C45.6359 95.0793 43.0688 97.2186 39.741 98.7399C36.4133 100.214 32.4913 100.95 27.9751 100.95H19.2753V114H5.15615V64.0837H27.9751ZM27.1193 89.8262C30.0192 89.8262 32.2061 89.2082 33.6798 87.9722C35.1535 86.6886 35.8904 84.8821 35.8904 82.5527C35.8904 80.2233 35.1535 78.4168 33.6798 77.1332C32.2061 75.8497 30.0192 75.2079 27.1193 75.2079H19.2753V89.8262H27.1193ZM72.5187 74.7087C78.9365 74.7087 83.8331 76.1824 87.2084 79.1299C90.5837 82.0298 92.2713 86.4985 92.2713 92.536V114H79.6496V109.008C77.7005 112.764 73.8973 114.642 68.2402 114.642C65.2452 114.642 62.6543 114.119 60.4675 113.073C58.2807 112.027 56.6168 110.625 55.4758 108.866C54.3824 107.059 53.8357 105.015 53.8357 102.733C53.8357 99.0726 55.2381 96.244 58.043 94.2474C60.8478 92.2032 65.1739 91.1811 71.0212 91.1811H78.7226C78.4849 87.0927 75.7514 85.0485 70.522 85.0485C68.668 85.0485 66.7902 85.3575 64.8886 85.9755C62.9871 86.546 61.3707 87.3542 60.0396 88.4L55.4758 79.2012C57.6151 77.775 60.206 76.6816 63.2485 75.921C66.3386 75.1128 69.4286 74.7087 72.5187 74.7087ZM72.0195 106.085C73.5883 106.085 74.967 105.704 76.1555 104.944C77.3439 104.183 78.1997 103.066 78.7226 101.592V98.2407H72.8752C68.9295 98.2407 66.9566 99.548 66.9566 102.163C66.9566 103.351 67.4082 104.302 68.3115 105.015C69.2147 105.728 70.4507 106.085 72.0195 106.085ZM113.73 79.9856C115.109 78.2266 116.892 76.9193 119.078 76.0636C121.313 75.1603 123.856 74.7087 126.709 74.7087V86.9026C125.473 86.7599 124.45 86.6886 123.642 86.6886C120.742 86.6886 118.46 87.473 116.797 89.0418C115.18 90.6106 114.372 93.0114 114.372 96.244V114H100.823V75.3505H113.73V79.9856ZM149.842 100.451L145.848 104.516V114H132.3V61.0887H145.848V88.8279L159.682 75.3505H175.727L159.682 91.8942L177.082 114H160.681L149.842 100.451Z" fill="white"/>
</svg>
