<svg width="225" height="67" viewBox="0 0 225 67" fill="none" xmlns="http://www.w3.org/2000/svg">
<path d="M108.51 51.08V27.95C108.51 19.63 104.51 14.81 96.98 13.57C95.5911 13.3475 94.1866 13.2371 92.78 13.24H89.23C78.98 13.24 73.5 18.24 73.5 28.03V51.08C73.4836 51.456 73.6162 51.8234 73.8689 52.1023C74.1217 52.3812 74.4742 52.5493 74.85 52.57H83.61C83.9929 52.552 84.3542 52.3871 84.6186 52.1096C84.8831 51.8321 85.0304 51.4633 85.03 51.08V28.08C85.03 24.95 85.53 22.75 89.23 22.75H92.78C96.38 22.75 96.95 24.83 96.98 27.82V51.08C96.98 51.4734 97.1356 51.8509 97.4129 52.1301C97.6901 52.4092 98.0666 52.5673 98.46 52.57H107.21C107.577 52.5369 107.917 52.3635 108.159 52.0859C108.401 51.8083 108.527 51.448 108.51 51.08Z" fill="white"/>
<path d="M172.64 53.21H171.64C167.16 53.21 154.64 51.86 154.64 35.14V15.3C154.624 14.9213 154.757 14.5514 155.012 14.2706C155.266 13.9898 155.622 13.8207 156 13.8H164.75C165.134 13.8205 165.495 13.9875 165.759 14.2666C166.024 14.5457 166.171 14.9156 166.17 15.3V35.14C166.17 41.9 168.31 43.47 171.65 43.47H172.65C175.99 43.47 178.12 41.9 178.12 35.14V15.3C178.12 14.914 178.268 14.5427 178.534 14.2633C178.801 13.984 179.164 13.818 179.55 13.8H188.3C188.677 13.8232 189.029 13.9934 189.282 14.2739C189.534 14.5545 189.666 14.9229 189.65 15.3V35.14C189.64 51.86 177.12 53.21 172.64 53.21Z" fill="white"/>
<path d="M26.04 52.15C22.9415 52.8867 19.7647 53.2427 16.58 53.21C6.58 53.21 0 46.81 0 35.21V31.21C0 19.61 6.54 13.21 16.58 13.21C19.7647 13.1773 22.9415 13.5333 26.04 14.27C27.11 14.56 27.53 14.84 27.53 15.91V22.24C27.5211 22.4082 27.479 22.5729 27.4063 22.7248C27.3335 22.8767 27.2315 23.0128 27.1061 23.1252C26.9807 23.2376 26.8344 23.3242 26.6754 23.3799C26.5165 23.4356 26.3481 23.4595 26.18 23.45H26.04C23.1601 23.1005 20.261 22.9335 17.36 22.95C14.16 22.95 11.52 24.87 11.52 31.21V35.21C11.52 41.55 14.16 43.47 17.36 43.47C20.261 43.4865 23.1601 43.3195 26.04 42.97H26.18C26.3481 42.9606 26.5165 42.9844 26.6754 43.0401C26.8344 43.0959 26.9807 43.1824 27.1061 43.2948C27.2315 43.4072 27.3335 43.5433 27.4063 43.6952C27.479 43.8471 27.5211 44.0118 27.53 44.18V50.51C27.53 51.58 27.11 51.86 26.04 52.15Z" fill="white"/>
<path d="M50.87 66.95C46.2716 67.0167 41.6896 66.3862 37.28 65.08C36.28 64.72 35.86 64.29 35.86 63.23V58.41C35.853 58.24 35.8813 58.0704 35.9431 57.9119C36.0049 57.7534 36.0989 57.6095 36.2192 57.4892C36.3395 57.3689 36.4835 57.2749 36.642 57.213C36.8005 57.1512 36.9701 57.1229 37.14 57.13H37.28C40.49 57.41 47.46 57.98 50.87 57.98C55.78 57.98 56.78 56.84 56.78 52.72V51.93C54.8009 52.3067 52.7942 52.5208 50.78 52.57C38.78 52.57 32.92 45.46 32.92 34.29V15.23C32.92 14.8507 33.0707 14.487 33.3389 14.2188C33.6071 13.9506 33.9708 13.8 34.35 13.8H42.96C43.3376 13.8026 43.6987 13.9545 43.9648 14.2223C44.2308 14.4902 44.3801 14.8525 44.38 15.23V34.29C44.38 39.29 45.73 43.11 50.78 43.11C52.7864 43.0769 54.7895 42.9334 56.78 42.68V15.23C56.78 14.8525 56.9293 14.4902 57.1953 14.2223C57.4614 13.9545 57.8225 13.8026 58.2 13.8H66.67C67.0476 13.8026 67.4087 13.9545 67.6748 14.2223C67.9408 14.4902 68.09 14.8525 68.09 15.23V52.72C68.09 62.96 62.61 66.95 50.87 66.95Z" fill="white"/>
<path d="M218.53 31.66L208.85 26.66C207.43 25.81 206.65 25.24 206.65 24.17C206.65 22.53 207.65 22.11 210.42 22.11C214.37 22.2146 218.312 22.5217 222.23 23.03H222.52C223.23 23.03 223.65 22.53 223.65 21.68V15.87C223.665 15.4788 223.535 15.0959 223.286 14.7937C223.038 14.4914 222.687 14.2909 222.3 14.23C218.176 13.0999 213.916 12.5479 209.64 12.59C199.82 12.59 195.05 16.44 195.05 23.59C195.03 25.7586 195.61 27.8905 196.728 29.7492C197.845 31.6079 199.455 33.1207 201.38 34.12L211.06 39.17C212.48 40.02 213.27 40.59 213.27 41.66C213.27 43.29 212.27 43.72 209.49 43.72C205.54 43.615 201.598 43.3079 197.68 42.8H197.4C196.69 42.8 196.26 43.29 196.26 44.15V49.91C196.248 50.3007 196.378 50.6825 196.626 50.9842C196.875 51.286 197.224 51.4871 197.61 51.55C201.738 52.676 206.002 53.2246 210.28 53.18C220.1 53.18 224.86 49.34 224.86 42.18C224.881 40.0126 224.3 37.882 223.183 36.0248C222.065 34.1676 220.455 32.6567 218.53 31.66Z" fill="white"/>
<path fill-rule="evenodd" clip-rule="evenodd" d="M125.53 13.73C127.465 13.4509 129.415 13.2839 131.37 13.23C143.39 13.23 149.23 20.28 149.19 31.45V35.04C149.19 46.0776 143.508 51.6072 132.767 53.08H126V53.0941C125.762 53.0853 125.589 53.08 125.5 53.08H115.994C114.892 53.08 113.997 52.1882 113.994 51.086L113.91 22.81C113.91 19.367 113.91 17.9651 113.921 16.5633C113.929 15.6004 113.942 14.6376 113.964 13.0134L113.97 12.56V1.42C113.988 1.03709 114.153 0.675848 114.43 0.411384C114.708 0.146919 115.077 -0.000420536 115.46 9.01593e-07H124.11C124.486 0.00262162 124.846 0.153071 125.111 0.418807C125.377 0.684543 125.527 1.04421 125.53 1.42V13.73ZM131.33 22.81H125.46L125.66 43.5C126.96 43.66 129.49 43.79 131.33 43.79C136.38 43.79 137.66 40.04 137.66 35.04V31.49C137.66 26.51 136.38 22.81 131.33 22.81Z" fill="white"/>
</svg>
